<mxfile modified="2020-03-10T05:36:23.718Z" host="www.draw.io" agent="Mozilla/5.0 (Macintosh; Intel Mac OS X 10_15_3) AppleWebKit/537.36 (KHTML, like Gecko) Chrome/80.0.3987.132 Safari/537.36" etag="fAAC9YBw-aUHGjrOlCNx" version="12.8.2" type="github">
  <diagram id="Ht1M8jgEwFfnCIfOTk4-" name="Page-1">
    <mxGraphModel dx="1951" dy="1958" grid="1" gridSize="10" guides="1" tooltips="1" connect="1" arrows="1" fold="1" page="1" pageScale="1" pageWidth="1169" pageHeight="827" math="0" shadow="0">
      <root>
        <mxCell id="0" />
        <mxCell id="1" parent="0" />
        <mxCell id="T-MR8SzM-c59_lT_EgYp-1" value="" style="aspect=fixed;perimeter=ellipsePerimeter;html=1;align=center;shadow=0;dashed=0;spacingTop=3;image;image=img/lib/active_directory/databases.svg;" vertex="1" parent="1">
          <mxGeometry x="758.16" y="-127.75" width="91.84" height="90" as="geometry" />
        </mxCell>
        <mxCell id="T-MR8SzM-c59_lT_EgYp-4" value="&lt;font style=&quot;font-size: 14px&quot;&gt;&lt;b&gt;Oracle&lt;/b&gt;&lt;/font&gt;" style="text;html=1;resizable=0;autosize=1;align=center;verticalAlign=middle;points=[];fillColor=none;strokeColor=none;rounded=0;" vertex="1" parent="1">
          <mxGeometry x="774.08" y="-28.5" width="60" height="20" as="geometry" />
        </mxCell>
        <mxCell id="T-MR8SzM-c59_lT_EgYp-5" value="" style="aspect=fixed;html=1;points=[];align=center;image;fontSize=12;image=img/lib/mscae/Cache_Redis_Product.svg;" vertex="1" parent="1">
          <mxGeometry x="590" y="-111.5" width="85.12" height="71.5" as="geometry" />
        </mxCell>
        <mxCell id="T-MR8SzM-c59_lT_EgYp-6" value="&lt;font style=&quot;font-size: 14px&quot;&gt;&lt;b&gt;Redis&lt;/b&gt;&lt;/font&gt;" style="text;html=1;resizable=0;autosize=1;align=center;verticalAlign=middle;points=[];fillColor=none;strokeColor=none;rounded=0;" vertex="1" parent="1">
          <mxGeometry x="607.56" y="-28.5" width="50" height="20" as="geometry" />
        </mxCell>
        <mxCell id="T-MR8SzM-c59_lT_EgYp-7" value="" style="aspect=fixed;html=1;points=[];align=center;image;fontSize=12;image=img/lib/mscae/App_Service_Mobile_App.svg;" vertex="1" parent="1">
          <mxGeometry x="360" y="-770" width="40.8" height="60" as="geometry" />
        </mxCell>
        <mxCell id="T-MR8SzM-c59_lT_EgYp-8" value="" style="aspect=fixed;html=1;points=[];align=center;image;fontSize=12;image=img/lib/mscae/App_Service_Mobile_App.svg;" vertex="1" parent="1">
          <mxGeometry x="440" y="-770" width="40.8" height="60" as="geometry" />
        </mxCell>
        <mxCell id="T-MR8SzM-c59_lT_EgYp-9" value="" style="aspect=fixed;html=1;points=[];align=center;image;fontSize=12;image=img/lib/mscae/App_Service_Mobile_App.svg;" vertex="1" parent="1">
          <mxGeometry x="520" y="-770" width="40.8" height="60" as="geometry" />
        </mxCell>
        <mxCell id="T-MR8SzM-c59_lT_EgYp-10" value="" style="endArrow=classic;html=1;strokeColor=#525252;strokeWidth=2;entryX=0.9;entryY=0.2;entryDx=0;entryDy=0;entryPerimeter=0;" edge="1" parent="1" target="T-MR8SzM-c59_lT_EgYp-15">
          <mxGeometry width="50" height="50" relative="1" as="geometry">
            <mxPoint x="542" y="-699" as="sourcePoint" />
            <mxPoint x="540" y="-560" as="targetPoint" />
            <Array as="points" />
          </mxGeometry>
        </mxCell>
        <mxCell id="T-MR8SzM-c59_lT_EgYp-16" value="" style="shape=image;html=1;verticalAlign=top;verticalLabelPosition=bottom;labelBackgroundColor=#ffffff;imageAspect=0;aspect=fixed;image=https://cdn4.iconfinder.com/data/icons/essential-app-1/16/dot-more-menu-hide-128.png" vertex="1" parent="1">
          <mxGeometry x="585" y="-770" width="57" height="57" as="geometry" />
        </mxCell>
        <mxCell id="T-MR8SzM-c59_lT_EgYp-18" value="" style="rounded=0;whiteSpace=wrap;html=1;strokeWidth=2;fillColor=none;" vertex="1" parent="1">
          <mxGeometry x="323.2" y="-790" width="486.8" height="90" as="geometry" />
        </mxCell>
        <mxCell id="T-MR8SzM-c59_lT_EgYp-22" value="&lt;font style=&quot;font-size: 14px&quot;&gt;모바일 클라이언트&lt;br&gt;e.g) 쇼핑전시, 쇼핑검색&lt;/font&gt;" style="text;html=1;strokeColor=none;fillColor=none;align=center;verticalAlign=middle;whiteSpace=wrap;rounded=0;" vertex="1" parent="1">
          <mxGeometry x="642" y="-770" width="160" height="50" as="geometry" />
        </mxCell>
        <mxCell id="T-MR8SzM-c59_lT_EgYp-29" value="" style="rounded=0;whiteSpace=wrap;html=1;strokeWidth=2;fillColor=none;" vertex="1" parent="1">
          <mxGeometry x="255.00000000000003" y="-490" width="600" height="293" as="geometry" />
        </mxCell>
        <mxCell id="T-MR8SzM-c59_lT_EgYp-15" value="" style="html=1;dashed=0;whitespace=wrap;fillColor=#2875E2;strokeColor=#ffffff;points=[[0.005,0.63,0],[0.1,0.2,0],[0.9,0.2,0],[0.5,0,0],[0.995,0.63,0],[0.72,0.99,0],[0.5,1,0],[0.28,0.99,0]];shape=mxgraph.kubernetes.icon;prIcon=api" vertex="1" parent="1">
          <mxGeometry x="371.19999999999993" y="-570" width="189.6" height="130" as="geometry" />
        </mxCell>
        <mxCell id="T-MR8SzM-c59_lT_EgYp-23" value="&lt;span style=&quot;font-size: 14px&quot;&gt;&lt;b&gt;Java mobile API&lt;/b&gt;&lt;/span&gt;" style="text;html=1;align=center;verticalAlign=middle;whiteSpace=wrap;rounded=0;fillColor=#ffffff;strokeColor=#666666;strokeWidth=2;" vertex="1" parent="1">
          <mxGeometry x="530" y="-520" width="160" height="50" as="geometry" />
        </mxCell>
        <mxCell id="T-MR8SzM-c59_lT_EgYp-33" value="" style="rounded=0;whiteSpace=wrap;html=1;strokeColor=#666666;strokeWidth=2;fillColor=#ffffff;" vertex="1" parent="1">
          <mxGeometry x="440" y="-413" width="210" height="193" as="geometry" />
        </mxCell>
        <mxCell id="T-MR8SzM-c59_lT_EgYp-32" value="&lt;font style=&quot;font-size: 15px&quot;&gt;&lt;b&gt;MyShoppingService(mobile)&lt;/b&gt;&lt;/font&gt;" style="rounded=0;whiteSpace=wrap;html=1;strokeColor=#666666;strokeWidth=2;fillColor=#ffffff;" vertex="1" parent="1">
          <mxGeometry x="420" y="-430" width="250" height="40" as="geometry" />
        </mxCell>
        <mxCell id="T-MR8SzM-c59_lT_EgYp-34" value="getRecentViewedProducts" style="rounded=0;whiteSpace=wrap;html=1;strokeColor=#666666;strokeWidth=2;fillColor=#ffffff;" vertex="1" parent="1">
          <mxGeometry x="450" y="-380" width="190" height="30" as="geometry" />
        </mxCell>
        <mxCell id="T-MR8SzM-c59_lT_EgYp-35" value="" style="shape=image;html=1;verticalAlign=top;verticalLabelPosition=bottom;labelBackgroundColor=#ffffff;imageAspect=0;aspect=fixed;image=https://cdn0.iconfinder.com/data/icons/slim-square-icons-basics/100/basics-15-128.png;strokeColor=#666666;strokeWidth=2;fillColor=#ffffff;" vertex="1" parent="1">
          <mxGeometry x="525.4" y="-350" width="30" height="30" as="geometry" />
        </mxCell>
        <mxCell id="T-MR8SzM-c59_lT_EgYp-36" value="getSspProducts" style="rounded=0;whiteSpace=wrap;html=1;strokeColor=#666666;strokeWidth=2;fillColor=#ffffff;" vertex="1" parent="1">
          <mxGeometry x="450" y="-260" width="190" height="30" as="geometry" />
        </mxCell>
        <mxCell id="T-MR8SzM-c59_lT_EgYp-37" value="getSearchProducts" style="rounded=0;whiteSpace=wrap;html=1;strokeColor=#666666;strokeWidth=2;fillColor=#ffffff;" vertex="1" parent="1">
          <mxGeometry x="450" y="-320" width="190" height="30" as="geometry" />
        </mxCell>
        <mxCell id="T-MR8SzM-c59_lT_EgYp-38" value="" style="shape=image;html=1;verticalAlign=top;verticalLabelPosition=bottom;labelBackgroundColor=#ffffff;imageAspect=0;aspect=fixed;image=https://cdn0.iconfinder.com/data/icons/slim-square-icons-basics/100/basics-15-128.png;strokeColor=#666666;strokeWidth=2;fillColor=#ffffff;" vertex="1" parent="1">
          <mxGeometry x="525.4" y="-290" width="30" height="30" as="geometry" />
        </mxCell>
        <mxCell id="T-MR8SzM-c59_lT_EgYp-39" value="3가지 서비스 호출결과를 더한값을 리턴" style="shape=callout;whiteSpace=wrap;html=1;perimeter=calloutPerimeter;strokeColor=#666666;strokeWidth=2;fillColor=#ffffff;size=47;position=0.79;base=128;position2=0.51;rotation=0;" vertex="1" parent="1">
          <mxGeometry x="670" y="-380" width="128" height="110" as="geometry" />
        </mxCell>
        <mxCell id="T-MR8SzM-c59_lT_EgYp-40" value="" style="html=1;dashed=0;whitespace=wrap;fillColor=#2875E2;strokeColor=#ffffff;points=[[0.005,0.63,0],[0.1,0.2,0],[0.9,0.2,0],[0.5,0,0],[0.995,0.63,0],[0.72,0.99,0],[0.5,1,0],[0.28,0.99,0]];shape=mxgraph.kubernetes.icon;prIcon=api" vertex="1" parent="1">
          <mxGeometry x="241.2" y="-120" width="130" height="80" as="geometry" />
        </mxCell>
        <mxCell id="T-MR8SzM-c59_lT_EgYp-41" value="&lt;b style=&quot;font-size: 14px&quot;&gt;&lt;br&gt;(Bada API)&lt;/b&gt;&lt;span style=&quot;font-size: 14px&quot;&gt;&lt;b&gt;&lt;br&gt;최근 본 상품 API&lt;br&gt;&lt;br&gt;&lt;/b&gt;&lt;/span&gt;" style="text;html=1;align=center;verticalAlign=middle;whiteSpace=wrap;rounded=0;fillColor=none;strokeColor=none;strokeWidth=2;" vertex="1" parent="1">
          <mxGeometry x="239.2" y="-35" width="132" height="40" as="geometry" />
        </mxCell>
        <mxCell id="T-MR8SzM-c59_lT_EgYp-42" value="" style="html=1;dashed=0;whitespace=wrap;fillColor=#2875E2;strokeColor=#ffffff;points=[[0.005,0.63,0],[0.1,0.2,0],[0.9,0.2,0],[0.5,0,0],[0.995,0.63,0],[0.72,0.99,0],[0.5,1,0],[0.28,0.99,0]];shape=mxgraph.kubernetes.icon;prIcon=api" vertex="1" parent="1">
          <mxGeometry x="390" y="-118.5" width="130" height="80" as="geometry" />
        </mxCell>
        <mxCell id="T-MR8SzM-c59_lT_EgYp-43" value="&lt;span style=&quot;font-size: 14px&quot;&gt;&lt;b&gt;스마트 스토어 &lt;br&gt;simple product API&lt;/b&gt;&lt;/span&gt;" style="text;html=1;align=center;verticalAlign=middle;whiteSpace=wrap;rounded=0;fillColor=none;strokeColor=none;strokeWidth=2;" vertex="1" parent="1">
          <mxGeometry x="388" y="-40" width="132" height="50" as="geometry" />
        </mxCell>
        <mxCell id="T-MR8SzM-c59_lT_EgYp-44" value="" style="endArrow=classic;html=1;strokeColor=#525252;strokeWidth=2;exitX=0.485;exitY=1;exitDx=0;exitDy=0;exitPerimeter=0;" edge="1" parent="1" source="T-MR8SzM-c59_lT_EgYp-29" target="T-MR8SzM-c59_lT_EgYp-40">
          <mxGeometry width="50" height="50" relative="1" as="geometry">
            <mxPoint x="338" y="-140" as="sourcePoint" />
            <mxPoint x="388" y="-190" as="targetPoint" />
            <Array as="points" />
          </mxGeometry>
        </mxCell>
        <mxCell id="T-MR8SzM-c59_lT_EgYp-45" value="" style="endArrow=classic;html=1;strokeColor=#525252;strokeWidth=2;exitX=0.485;exitY=1;exitDx=0;exitDy=0;exitPerimeter=0;" edge="1" parent="1" source="T-MR8SzM-c59_lT_EgYp-29">
          <mxGeometry width="50" height="50" relative="1" as="geometry">
            <mxPoint x="454" y="-187" as="sourcePoint" />
            <mxPoint x="470" y="-120" as="targetPoint" />
            <Array as="points" />
          </mxGeometry>
        </mxCell>
        <mxCell id="T-MR8SzM-c59_lT_EgYp-46" value="" style="endArrow=classic;html=1;strokeColor=#525252;strokeWidth=2;exitX=0.49;exitY=1.003;exitDx=0;exitDy=0;exitPerimeter=0;" edge="1" parent="1">
          <mxGeometry width="50" height="50" relative="1" as="geometry">
            <mxPoint x="551.4" y="-198.0610000000001" as="sourcePoint" />
            <mxPoint x="612.4" y="-121.94" as="targetPoint" />
            <Array as="points" />
          </mxGeometry>
        </mxCell>
        <mxCell id="T-MR8SzM-c59_lT_EgYp-47" value="" style="endArrow=classic;html=1;strokeColor=#525252;strokeWidth=2;exitX=0.5;exitY=1;exitDx=0;exitDy=0;entryX=-0.045;entryY=-0.036;entryDx=0;entryDy=0;entryPerimeter=0;" edge="1" parent="1" source="T-MR8SzM-c59_lT_EgYp-29" target="T-MR8SzM-c59_lT_EgYp-1">
          <mxGeometry width="50" height="50" relative="1" as="geometry">
            <mxPoint x="559" y="-186.1210000000001" as="sourcePoint" />
            <mxPoint x="620" y="-110" as="targetPoint" />
            <Array as="points" />
          </mxGeometry>
        </mxCell>
        <mxCell id="T-MR8SzM-c59_lT_EgYp-48" value="GET" style="text;html=1;strokeColor=none;fillColor=#ffffff;align=center;verticalAlign=middle;whiteSpace=wrap;rounded=0;" vertex="1" parent="1">
          <mxGeometry x="446" y="-170" width="34" height="20" as="geometry" />
        </mxCell>
        <mxCell id="T-MR8SzM-c59_lT_EgYp-50" value="GET" style="text;html=1;strokeColor=none;fillColor=#ffffff;align=center;verticalAlign=middle;whiteSpace=wrap;rounded=0;" vertex="1" parent="1">
          <mxGeometry x="496" y="-170" width="34" height="20" as="geometry" />
        </mxCell>
        <mxCell id="T-MR8SzM-c59_lT_EgYp-51" value="GET &amp;amp; SET" style="text;html=1;strokeColor=none;fillColor=#ffffff;align=center;verticalAlign=middle;whiteSpace=wrap;rounded=0;" vertex="1" parent="1">
          <mxGeometry x="544.5" y="-166.12" width="80" height="16.12" as="geometry" />
        </mxCell>
        <mxCell id="T-MR8SzM-c59_lT_EgYp-53" value="GET" style="text;html=1;strokeColor=none;fillColor=#ffffff;align=center;verticalAlign=middle;whiteSpace=wrap;rounded=0;" vertex="1" parent="1">
          <mxGeometry x="642" y="-173.87" width="34" height="20" as="geometry" />
        </mxCell>
        <mxCell id="T-MR8SzM-c59_lT_EgYp-56" value="&lt;font style=&quot;font-size: 14px&quot;&gt;&lt;b&gt;GET &lt;br&gt;&lt;/b&gt;/autocomplete/recentProduct.nhn&lt;/font&gt;" style="text;html=1;strokeColor=none;fillColor=#ffffff;align=center;verticalAlign=middle;whiteSpace=wrap;rounded=0;" vertex="1" parent="1">
          <mxGeometry x="426.4" y="-650" width="243.6" height="40" as="geometry" />
        </mxCell>
      </root>
    </mxGraphModel>
  </diagram>
</mxfile>
